G04*
G04 #@! TF.GenerationSoftware,Altium Limited,Altium Designer,26.9.1 (10)*
G04*
G04 Layer_Color=32896*
G04 Board_Origin=51750000|32650000*
%FSLAX44Y44*%
%MOMM*%
G71*
G04*
G04 #@! TF.SameCoordinates,C2DD1E9E-6058-447A-8772-A2D8D251911E*
G04*
G04*
G04 #@! TF.FilePolarity,Positive*
G04*
G01*
G75*
%ADD10C,0.2500*%
%ADD11C,0.2000*%
%ADD12C,0.2540*%
D10*
X252490Y154940D02*
G03*
X252490Y154940I-1250J0D01*
G01*
X227173Y219960D02*
G03*
X227173Y219960I-1250J0D01*
G01*
X265410Y255050D02*
G03*
X265410Y255050I-1250J0D01*
G01*
D11*
X256040Y139740D02*
X282440D01*
X256040D02*
Y195540D01*
X282440D01*
Y139740D02*
Y195540D01*
X278839Y109369D02*
X307901D01*
X278839Y131931D02*
X307901D01*
X261471Y101039D02*
Y130101D01*
X238909Y101039D02*
Y130101D01*
X245672Y204960D02*
Y207210D01*
Y232210D02*
Y234460D01*
X293172D01*
Y204960D02*
Y207210D01*
Y232210D02*
Y234460D01*
X245672Y204960D02*
X293172D01*
X279360Y259850D02*
Y286250D01*
X223560Y259850D02*
X279360D01*
X223560D02*
Y286250D01*
X279360D01*
X318919Y208989D02*
Y238051D01*
X341481Y208989D02*
Y238051D01*
X311488Y270190D02*
Y275910D01*
X298488Y258550D02*
X302719D01*
X298488Y279690D02*
Y287550D01*
Y258550D02*
Y266410D01*
Y287550D02*
X302719D01*
D12*
X54018Y57640D02*
Y113890D01*
Y208640D02*
Y263640D01*
Y132390D02*
Y139390D01*
Y157640D02*
Y164640D01*
Y183140D02*
Y190140D01*
X209017Y57640D02*
Y113890D01*
Y132390D02*
Y139390D01*
Y157890D02*
Y164890D01*
Y183140D02*
Y190140D01*
Y208640D02*
Y263640D01*
X54018D02*
X209017D01*
X54018Y57640D02*
X209017D01*
X67307Y194103D02*
X70640D01*
X68973D01*
Y204100D01*
X67307D01*
X70640D01*
X75638D02*
Y194103D01*
X82302Y204100D01*
Y194103D01*
X85635D02*
X92299D01*
X88967D01*
Y204100D01*
X67307Y168770D02*
X70640D01*
X68973D01*
Y178766D01*
X67307D01*
X70640D01*
X75638D02*
Y168770D01*
X80636D01*
X82302Y170436D01*
Y173768D01*
X80636Y175434D01*
X75638D01*
X78970D02*
X82302Y178766D01*
X85635Y168770D02*
Y178766D01*
X90633D01*
X92299Y177100D01*
Y170436D01*
X90633Y168770D01*
X85635D01*
X67307Y153433D02*
Y143436D01*
X72306D01*
X73972Y145103D01*
Y148435D01*
X72306Y150101D01*
X67307D01*
X70640D02*
X73972Y153433D01*
X77304Y143436D02*
Y153433D01*
X82302D01*
X83968Y151767D01*
Y145103D01*
X82302Y143436D01*
X77304D01*
X73972Y119769D02*
X72306Y118103D01*
X68973D01*
X67307Y119769D01*
Y126434D01*
X68973Y128100D01*
X72306D01*
X73972Y126434D01*
Y123101D01*
X70640D01*
X77304Y128100D02*
Y118103D01*
X83968Y128100D01*
Y118103D01*
X87301D02*
Y128100D01*
X92299D01*
X93965Y126434D01*
Y119769D01*
X92299Y118103D01*
X87301D01*
X169973Y118353D02*
Y125018D01*
X173306Y128350D01*
X176638Y125018D01*
Y118353D01*
X179970D02*
X183302D01*
X181636D01*
Y128350D01*
X179970D01*
X183302D01*
X188301D02*
Y118353D01*
X194965Y128350D01*
Y118353D01*
X174972Y145436D02*
X173306Y143770D01*
X169973D01*
X168307Y145436D01*
Y147102D01*
X169973Y148768D01*
X173306D01*
X174972Y150434D01*
Y152100D01*
X173306Y153766D01*
X169973D01*
X168307Y152100D01*
X178304Y143770D02*
Y153766D01*
X183302D01*
X184968Y152100D01*
Y145436D01*
X183302Y143770D01*
X178304D01*
X188301Y153766D02*
Y147102D01*
X191633Y143770D01*
X194965Y147102D01*
Y153766D01*
Y148768D01*
X188301D01*
X174972Y170853D02*
X173306Y169186D01*
X169973D01*
X168307Y170853D01*
Y172519D01*
X169973Y174185D01*
X173306D01*
X174972Y175851D01*
Y177517D01*
X173306Y179183D01*
X169973D01*
X168307Y177517D01*
X184968Y170853D02*
X183302Y169186D01*
X179970D01*
X178304Y170853D01*
Y177517D01*
X179970Y179183D01*
X183302D01*
X184968Y177517D01*
X188301Y169186D02*
Y179183D01*
X194965D01*
X174972Y196269D02*
X173306Y194603D01*
X169973D01*
X168307Y196269D01*
Y202934D01*
X169973Y204600D01*
X173306D01*
X174972Y202934D01*
Y199601D01*
X171639D01*
X178304Y204600D02*
Y194603D01*
X184968Y204600D01*
Y194603D01*
X188301D02*
Y204600D01*
X193299D01*
X194965Y202934D01*
Y196269D01*
X193299Y194603D01*
X188301D01*
X138977Y216600D02*
X123982D01*
X128981Y211601D01*
X123982Y206603D01*
X138977D01*
Y201605D02*
X128981D01*
X123982Y196606D01*
X128981Y191608D01*
X138977D01*
X131480D01*
Y201605D01*
X123982Y186609D02*
X138977Y176613D01*
X123982D02*
X138977Y186609D01*
X126481Y171614D02*
X123982Y169115D01*
Y164117D01*
X126481Y161618D01*
X128981D01*
X131480Y164117D01*
Y166616D01*
Y164117D01*
X133979Y161618D01*
X136478D01*
X138977Y164117D01*
Y169115D01*
X136478Y171614D01*
X126481Y156619D02*
X123982Y154120D01*
Y149122D01*
X126481Y146622D01*
X136478D01*
X138977Y149122D01*
Y154120D01*
X136478Y156619D01*
X126481D01*
X138977Y141624D02*
Y136626D01*
Y139125D01*
X123982D01*
X126481Y141624D01*
Y129128D02*
X123982Y126629D01*
Y121630D01*
X126481Y119131D01*
X136478D01*
X138977Y121630D01*
Y126629D01*
X136478Y129128D01*
X126481D01*
X138977Y104136D02*
Y114133D01*
X128981Y104136D01*
X126481D01*
X123982Y106635D01*
Y111634D01*
X126481Y114133D01*
X72051Y287777D02*
Y275081D01*
X69512Y272542D01*
X64434D01*
X61894Y275081D01*
Y287777D01*
X56816Y285238D02*
X54277Y287777D01*
X49199D01*
X46659Y285238D01*
Y282698D01*
X49199Y280159D01*
X51738D01*
X49199D01*
X46659Y277620D01*
Y275081D01*
X49199Y272542D01*
X54277D01*
X56816Y275081D01*
X375916Y214632D02*
Y229867D01*
X368298D01*
X365759Y227328D01*
Y222250D01*
X368298Y219711D01*
X375916D01*
X370838D02*
X365759Y214632D01*
X353063D02*
Y229867D01*
X360681Y222250D01*
X350524D01*
X232406Y91442D02*
Y106678D01*
X224788D01*
X222249Y104138D01*
Y99060D01*
X224788Y96521D01*
X232406D01*
X227327D02*
X222249Y91442D01*
X217171Y104138D02*
X214632Y106678D01*
X209553D01*
X207014Y104138D01*
Y101599D01*
X209553Y99060D01*
X212092D01*
X209553D01*
X207014Y96521D01*
Y93982D01*
X209553Y91442D01*
X214632D01*
X217171Y93982D01*
X303527Y88903D02*
Y104137D01*
X295909D01*
X293370Y101598D01*
Y96520D01*
X295909Y93981D01*
X303527D01*
X298448D02*
X293370Y88903D01*
X288292D02*
X283213D01*
X285752D01*
Y104137D01*
X288292Y101598D01*
X337820Y279402D02*
Y289558D01*
X340359Y292097D01*
X345438D01*
X347977Y289558D01*
Y279402D01*
X345438Y276863D01*
X340359D01*
X342898Y281941D02*
X337820Y276863D01*
X340359D02*
X337820Y279402D01*
X332742Y276863D02*
X327663D01*
X330202D01*
Y292097D01*
X332742Y289558D01*
X242569Y195578D02*
X247647D01*
X245108D01*
Y182882D01*
X247647Y180343D01*
X250187D01*
X252726Y182882D01*
X227334Y195578D02*
X237491D01*
Y187960D01*
X232412Y190499D01*
X229873D01*
X227334Y187960D01*
Y182882D01*
X229873Y180343D01*
X234952D01*
X237491Y182882D01*
X289559Y255268D02*
X294638D01*
X292098D01*
Y242572D01*
X294638Y240033D01*
X297177D01*
X299716Y242572D01*
X284481Y252728D02*
X281942Y255268D01*
X276863D01*
X274324Y252728D01*
Y250189D01*
X276863Y247650D01*
X279403D01*
X276863D01*
X274324Y245111D01*
Y242572D01*
X276863Y240033D01*
X281942D01*
X284481Y242572D01*
X240027Y251458D02*
Y236222D01*
X232409D01*
X229870Y238762D01*
Y248918D01*
X232409Y251458D01*
X240027D01*
X224792Y236222D02*
X219713D01*
X222252D01*
Y251458D01*
X224792Y248918D01*
M02*
