G04*
G04 #@! TF.GenerationSoftware,Altium Limited,Altium Designer,26.9.1 (10)*
G04*
G04 Layer_Color=65535*
G04 Board_Origin=51750000|32650000*
%FSLAX44Y44*%
%MOMM*%
G71*
G04*
G04 #@! TF.SameCoordinates,37D34049-1C6C-4895-9F9D-0DDFABE294AE*
G04*
G04*
G04 #@! TF.FilePolarity,Positive*
G04*
G01*
G75*
%ADD10C,0.2500*%
%ADD11C,0.2000*%
%ADD12C,0.2540*%
%ADD13C,0.1270*%
D10*
X151110Y48250D02*
G03*
X151110Y48250I-1250J0D01*
G01*
X284460Y44458D02*
G03*
X284460Y44458I-1250J0D01*
G01*
X72700Y48250D02*
G03*
X72700Y48250I-1250J0D01*
G01*
D11*
X383960Y101430D02*
G03*
X383960Y101430I-1000J0D01*
G01*
X109260Y17050D02*
X165060D01*
X109260D02*
Y43450D01*
X165060D01*
Y17050D02*
Y43450D01*
X315536Y23009D02*
X344597D01*
X315536Y45571D02*
X344597D01*
X242610Y13258D02*
X298410D01*
X242610D02*
Y39657D01*
X298410D01*
Y13258D02*
Y39657D01*
X86650Y17050D02*
Y43450D01*
X30850D02*
X86650D01*
X30850Y17050D02*
Y43450D01*
Y17050D02*
X86650D01*
D12*
X16500Y82650D02*
X172100D01*
Y285250D01*
X16500Y82650D02*
Y285250D01*
X172100D01*
X108540Y232960D02*
X123535D01*
X118537Y227962D01*
X123535Y222963D01*
X108540D01*
Y217965D02*
X123535D01*
Y210467D01*
X121036Y207968D01*
X116038D01*
X113538Y210467D01*
Y217965D01*
X123535Y202970D02*
X111039D01*
X108540Y200471D01*
Y195472D01*
X111039Y192973D01*
X123535D01*
Y177978D02*
X121036Y182976D01*
X116038Y187974D01*
X111039D01*
X108540Y185475D01*
Y180477D01*
X111039Y177978D01*
X113538D01*
X116038Y180477D01*
Y187974D01*
X121036Y172979D02*
X123535Y170480D01*
Y165482D01*
X121036Y162983D01*
X111039D01*
X108540Y165482D01*
Y170480D01*
X111039Y172979D01*
X121036D01*
X123535Y147987D02*
Y157984D01*
X116038D01*
X118537Y152986D01*
Y150487D01*
X116038Y147987D01*
X111039D01*
X108540Y150487D01*
Y155485D01*
X111039Y157984D01*
X121036Y142989D02*
X123535Y140490D01*
Y135492D01*
X121036Y132992D01*
X111039D01*
X108540Y135492D01*
Y140490D01*
X111039Y142989D01*
X121036D01*
X53454Y251110D02*
X51788Y252776D01*
X48456D01*
X46790Y251110D01*
Y244445D01*
X48456Y242779D01*
X51788D01*
X53454Y244445D01*
Y247777D01*
X50122D01*
X56787Y242779D02*
Y252776D01*
X63451Y242779D01*
Y252776D01*
X66784D02*
Y242779D01*
X71782D01*
X73448Y244445D01*
Y251110D01*
X71782Y252776D01*
X66784D01*
X46790Y116474D02*
Y123139D01*
X50122Y126471D01*
X53454Y123139D01*
Y116474D01*
Y121473D01*
X46790D01*
X56787Y126471D02*
Y116474D01*
X61785D01*
X63451Y118140D01*
Y124805D01*
X61785Y126471D01*
X56787D01*
X66784Y124805D02*
X68450Y126471D01*
X71782D01*
X73448Y124805D01*
Y118140D01*
X71782Y116474D01*
X68450D01*
X66784Y118140D01*
Y124805D01*
X46790Y151732D02*
X53454Y141735D01*
Y151732D02*
X46790Y141735D01*
X63451Y150066D02*
X61785Y151732D01*
X58453D01*
X56787Y150066D01*
Y143401D01*
X58453Y141735D01*
X61785D01*
X63451Y143401D01*
X66784Y151732D02*
Y141735D01*
X73448D01*
X46790Y176993D02*
X53454Y166996D01*
Y176993D02*
X46790Y166996D01*
X56787Y176993D02*
Y166996D01*
X61785D01*
X63451Y168662D01*
Y175327D01*
X61785Y176993D01*
X56787D01*
X66784Y166996D02*
Y173661D01*
X70116Y176993D01*
X73448Y173661D01*
Y166996D01*
Y171994D01*
X66784D01*
X53454Y200588D02*
X51788Y202254D01*
X48456D01*
X46790Y200588D01*
Y198922D01*
X48456Y197255D01*
X51788D01*
X53454Y195589D01*
Y193923D01*
X51788Y192257D01*
X48456D01*
X46790Y193923D01*
X56787Y202254D02*
Y192257D01*
X61785D01*
X63451Y193923D01*
Y200588D01*
X61785Y202254D01*
X56787D01*
X66784Y192257D02*
Y198922D01*
X70116Y202254D01*
X73448Y198922D01*
Y192257D01*
Y197255D01*
X66784D01*
X53454Y225849D02*
X51788Y227515D01*
X48456D01*
X46790Y225849D01*
Y224182D01*
X48456Y222516D01*
X51788D01*
X53454Y220850D01*
Y219184D01*
X51788Y217518D01*
X48456D01*
X46790Y219184D01*
X63451Y225849D02*
X61785Y227515D01*
X58453D01*
X56787Y225849D01*
Y219184D01*
X58453Y217518D01*
X61785D01*
X63451Y219184D01*
X66784Y227515D02*
Y217518D01*
X73448D01*
X46790Y278037D02*
Y271372D01*
X50122Y268040D01*
X53454Y271372D01*
Y278037D01*
X63451Y276371D02*
X61785Y278037D01*
X58453D01*
X56787Y276371D01*
Y269706D01*
X58453Y268040D01*
X61785D01*
X63451Y269706D01*
X73448Y276371D02*
X71782Y278037D01*
X68450D01*
X66784Y276371D01*
Y269706D01*
X68450Y268040D01*
X71782D01*
X73448Y269706D01*
X46790Y101210D02*
X50122D01*
X48456D01*
Y91213D01*
X46790D01*
X50122D01*
X55121D02*
Y101210D01*
X61785Y91213D01*
Y101210D01*
X65117D02*
X71782D01*
X68450D01*
Y91213D01*
X394868Y252727D02*
X382172D01*
X379632Y250187D01*
Y245109D01*
X382172Y242570D01*
X394868D01*
X379632Y237492D02*
Y232413D01*
Y234952D01*
X394868D01*
X392328Y237492D01*
X112804Y77368D02*
Y64672D01*
X115343Y62133D01*
X120422D01*
X122961Y64672D01*
Y77368D01*
X138196Y62133D02*
X128039D01*
X138196Y72289D01*
Y74828D01*
X135657Y77368D01*
X130578D01*
X128039Y74828D01*
X353064Y26672D02*
Y41908D01*
X360682D01*
X363221Y39368D01*
Y34290D01*
X360682Y31751D01*
X353064D01*
X358143D02*
X363221Y26672D01*
X378456D02*
X368299D01*
X378456Y36829D01*
Y39368D01*
X375917Y41908D01*
X370838D01*
X368299Y39368D01*
X181611Y36597D02*
X176532D01*
X179072D01*
Y23902D01*
X176532Y21363D01*
X173993D01*
X171454Y23902D01*
X194307Y21363D02*
Y36597D01*
X186689Y28980D01*
X196846D01*
X217171Y34042D02*
X212092D01*
X214632D01*
Y21347D01*
X212092Y18807D01*
X209553D01*
X207014Y21347D01*
X232406Y18807D02*
X222249D01*
X232406Y28964D01*
Y31503D01*
X229867Y34042D01*
X224788D01*
X222249Y31503D01*
X15570Y39137D02*
X10492D01*
X13031D01*
Y26442D01*
X10492Y23902D01*
X7952D01*
X5413Y26442D01*
X20648Y23902D02*
X25727D01*
X23188D01*
Y39137D01*
X20648Y36598D01*
D13*
X191670Y285340D02*
X369670D01*
X191670Y270040D02*
Y285340D01*
X369670Y270040D02*
Y285340D01*
X235720Y61100D02*
X325670D01*
X369670Y75340D02*
Y90340D01*
X325670Y75340D02*
X369670D01*
X325670Y61340D02*
Y75340D01*
X235670Y61340D02*
Y75340D01*
X191670D02*
X235670D01*
X191670D02*
Y90340D01*
M02*
