G04*
G04 #@! TF.GenerationSoftware,Altium Limited,Altium Designer,26.9.1 (10)*
G04*
G04 Layer_Physical_Order=1*
G04 Layer_Color=255*
G04 Board_Origin=51750000|32650000*
%FSLAX44Y44*%
%MOMM*%
G71*
G04*
G04 #@! TF.SameCoordinates,C2DD1E9E-6058-447A-8772-A2D8D251911E*
G04*
G04*
G04 #@! TF.FilePolarity,Positive*
G04*
G01*
G75*
%ADD14R,2.0000X1.5000*%
G04:AMPARAMS|DCode=15|XSize=2.75mm|YSize=2mm|CornerRadius=0.5mm|HoleSize=0mm|Usage=FLASHONLY|Rotation=180.000|XOffset=0mm|YOffset=0mm|HoleType=Round|Shape=RoundedRectangle|*
%AMROUNDEDRECTD15*
21,1,2.7500,1.0000,0,0,180.0*
21,1,1.7500,2.0000,0,0,180.0*
1,1,1.0000,-0.8750,0.5000*
1,1,1.0000,0.8750,0.5000*
1,1,1.0000,0.8750,-0.5000*
1,1,1.0000,-0.8750,-0.5000*
%
%ADD15ROUNDEDRECTD15*%
%ADD16R,1.1549X1.4562*%
G04:AMPARAMS|DCode=17|XSize=2mm|YSize=3mm|CornerRadius=0.5mm|HoleSize=0mm|Usage=FLASHONLY|Rotation=180.000|XOffset=0mm|YOffset=0mm|HoleType=Round|Shape=RoundedRectangle|*
%AMROUNDEDRECTD17*
21,1,2.0000,2.0000,0,0,180.0*
21,1,1.0000,3.0000,0,0,180.0*
1,1,1.0000,-0.5000,1.0000*
1,1,1.0000,0.5000,1.0000*
1,1,1.0000,0.5000,-1.0000*
1,1,1.0000,-0.5000,-1.0000*
%
%ADD17ROUNDEDRECTD17*%
%ADD18R,1.6000X1.6000*%
%ADD19C,1.6000*%
%ADD20C,1.2700*%
%ADD21C,0.5000*%
G36*
X143107Y291115D02*
X142416Y290654D01*
X100587Y248824D01*
X100230Y248920D01*
X97890D01*
X95629Y248314D01*
X93601Y247144D01*
X91946Y245489D01*
X90776Y243461D01*
X90170Y241200D01*
Y238860D01*
X90776Y236599D01*
X91946Y234571D01*
X93601Y232916D01*
X95629Y231746D01*
X97890Y231140D01*
X100230D01*
X102491Y231746D01*
X104519Y232916D01*
X106174Y234571D01*
X107344Y236599D01*
X107950Y238860D01*
Y241200D01*
X107854Y241557D01*
X148179Y281881D01*
X299911D01*
X344490Y237303D01*
X344037Y233698D01*
X339112Y231816D01*
X295714Y275213D01*
X294046Y276327D01*
X292080Y276719D01*
X166170D01*
X164203Y276327D01*
X162536Y275213D01*
X98143Y210820D01*
X96620D01*
X94359Y210214D01*
X92331Y209044D01*
X90676Y207389D01*
X89506Y205361D01*
X88900Y203100D01*
Y200760D01*
X89506Y198499D01*
X90676Y196471D01*
X92331Y194816D01*
X94359Y193646D01*
X96620Y193040D01*
X98960D01*
X101221Y193646D01*
X103249Y194816D01*
X104904Y196471D01*
X106074Y198499D01*
X106680Y200760D01*
Y203100D01*
X106316Y204459D01*
X168298Y266441D01*
X179377D01*
X180451Y265690D01*
X183315Y261540D01*
Y251540D01*
X183574Y249571D01*
X184334Y247737D01*
X184882Y247023D01*
X185542Y245753D01*
Y241926D01*
X184882Y240657D01*
X184334Y239942D01*
X183574Y238108D01*
X183315Y236140D01*
Y226140D01*
X183574Y224172D01*
X184334Y222337D01*
X184882Y221623D01*
X185542Y220353D01*
Y216526D01*
X184882Y215257D01*
X184334Y214542D01*
X183574Y212708D01*
X183315Y210740D01*
Y204122D01*
X182260Y203417D01*
X52289Y73446D01*
X51990Y73485D01*
X41990D01*
X40022Y73226D01*
X38188Y72466D01*
X36613Y71258D01*
X35404Y69683D01*
X34644Y67849D01*
X34385Y65880D01*
Y45880D01*
X34644Y43912D01*
X35404Y42078D01*
X36613Y40503D01*
X38188Y39294D01*
X40022Y38534D01*
X41990Y38275D01*
X51990D01*
X53959Y38534D01*
X55793Y39294D01*
X56507Y39842D01*
X57776Y40503D01*
X61604D01*
X62874Y39842D01*
X63588Y39294D01*
X65422Y38534D01*
X67390Y38275D01*
X77390D01*
X79359Y38534D01*
X81193Y39294D01*
X82768Y40503D01*
X83976Y42078D01*
X84736Y43912D01*
X84995Y45880D01*
Y65880D01*
X84956Y66179D01*
X121797Y103020D01*
X125798Y99950D01*
X125066Y98681D01*
X124460Y96420D01*
Y94080D01*
X125066Y91819D01*
X126236Y89791D01*
X127891Y88136D01*
X129919Y86966D01*
X132180Y86360D01*
X134520D01*
X136781Y86966D01*
X138809Y88136D01*
X140464Y89791D01*
X141634Y91819D01*
X142240Y94080D01*
Y96420D01*
X142144Y96777D01*
X178315Y132948D01*
X183315Y130877D01*
Y130810D01*
X199670D01*
X216025D01*
Y134540D01*
X215766Y136508D01*
X215006Y138342D01*
X214458Y139057D01*
X213798Y140326D01*
Y144153D01*
X214458Y145423D01*
X215006Y146137D01*
X215766Y147971D01*
X216025Y149940D01*
Y159940D01*
X215766Y161908D01*
X215006Y163742D01*
X214458Y164457D01*
X213798Y165726D01*
Y169553D01*
X214458Y170823D01*
X215006Y171537D01*
X215766Y173372D01*
X216025Y175340D01*
Y185340D01*
X215766Y187308D01*
X215006Y189142D01*
X214458Y189856D01*
X213798Y191126D01*
Y194953D01*
X214458Y196223D01*
X215006Y196937D01*
X215766Y198771D01*
X216025Y200740D01*
Y210740D01*
X215766Y212708D01*
X215006Y214542D01*
X214458Y215257D01*
X213798Y216526D01*
Y220353D01*
X214458Y221623D01*
X215006Y222337D01*
X215766Y224172D01*
X216025Y226140D01*
Y236140D01*
X215766Y238108D01*
X215006Y239942D01*
X214458Y240657D01*
X213798Y241926D01*
Y245753D01*
X214458Y247023D01*
X215006Y247737D01*
X215766Y249571D01*
X216025Y251540D01*
Y261540D01*
X218889Y265690D01*
X219963Y266441D01*
X289951D01*
X345354Y211038D01*
X345315Y210740D01*
Y202914D01*
X344289Y200179D01*
X340610Y198170D01*
X289560D01*
X288569Y197973D01*
X287729Y197411D01*
X287167Y196571D01*
X286970Y195580D01*
Y138430D01*
X284194Y135466D01*
X283006Y134678D01*
X267559D01*
X242474Y159763D01*
X242570Y160120D01*
Y162460D01*
X241964Y164721D01*
X240794Y166749D01*
X239139Y168404D01*
X237111Y169574D01*
X234850Y170180D01*
X232510D01*
X230249Y169574D01*
X228221Y168404D01*
X226566Y166749D01*
X225396Y164721D01*
X224790Y162460D01*
Y160120D01*
X225396Y157859D01*
X226566Y155831D01*
X228221Y154176D01*
X230249Y153006D01*
X232510Y152400D01*
X234850D01*
X235207Y152496D01*
X261797Y125906D01*
X263464Y124792D01*
X265430Y124401D01*
X345333D01*
X345574Y122571D01*
X346334Y120737D01*
X346882Y120023D01*
X347542Y118753D01*
Y114926D01*
X346882Y113657D01*
X346334Y112942D01*
X345574Y111108D01*
X345333Y109278D01*
X241300D01*
X239333Y108887D01*
X237666Y107773D01*
X216157Y86264D01*
X215800Y86360D01*
X213460D01*
X211199Y85754D01*
X210968Y85621D01*
X206518Y88252D01*
X207455Y91535D01*
X208420D01*
X210388Y91794D01*
X212222Y92554D01*
X213798Y93762D01*
X215006Y95337D01*
X215766Y97171D01*
X216025Y99140D01*
Y109140D01*
X215766Y111108D01*
X215006Y112942D01*
X214458Y113657D01*
X213798Y114926D01*
Y118753D01*
X214458Y120023D01*
X215006Y120737D01*
X215766Y122571D01*
X216025Y124540D01*
Y128270D01*
X199670D01*
X183315D01*
Y124540D01*
X183574Y122571D01*
X184334Y120737D01*
X184882Y120023D01*
X185542Y118753D01*
Y114926D01*
X184882Y113657D01*
X184334Y112942D01*
X183574Y111108D01*
X183315Y109140D01*
Y99140D01*
X183574Y97171D01*
X184334Y95337D01*
X185542Y93762D01*
X187118Y92554D01*
X188952Y91794D01*
X190920Y91535D01*
X194531D01*
Y83688D01*
X173132Y62289D01*
X162465D01*
Y67150D01*
X162206Y69118D01*
X161446Y70953D01*
X160238Y72528D01*
X158663Y73736D01*
X156828Y74496D01*
X154860Y74755D01*
X144860D01*
X142892Y74496D01*
X141058Y73736D01*
X140343Y73188D01*
X139074Y72528D01*
X135246D01*
X133977Y73188D01*
X133263Y73736D01*
X131428Y74496D01*
X129460Y74755D01*
X125730D01*
Y57150D01*
X124460D01*
D01*
X125730D01*
Y39545D01*
X129460D01*
X131428Y39804D01*
X133263Y40564D01*
X133977Y41112D01*
X135246Y41772D01*
X139074D01*
X140343Y41112D01*
X141058Y40564D01*
X142892Y39804D01*
X144860Y39545D01*
X154860D01*
X156828Y39804D01*
X158663Y40564D01*
X160238Y41772D01*
X161446Y43348D01*
X162206Y45182D01*
X162465Y47150D01*
Y52011D01*
X175260D01*
X177227Y52402D01*
X178894Y53516D01*
X200990Y75613D01*
X206346Y74039D01*
X207516Y72011D01*
X209171Y70356D01*
X211199Y69186D01*
X213460Y68580D01*
X215800D01*
X218061Y69186D01*
X220089Y70356D01*
X221744Y72011D01*
X222914Y74039D01*
X223520Y76300D01*
Y78640D01*
X223424Y78997D01*
X243428Y99001D01*
X345333D01*
X345574Y97171D01*
X346334Y95337D01*
X347542Y93762D01*
X349118Y92554D01*
X350952Y91794D01*
X352920Y91535D01*
X370420D01*
X374571Y88671D01*
X375321Y87597D01*
Y56199D01*
X358551Y39429D01*
X347137D01*
Y44111D01*
X334624D01*
X330508Y44111D01*
X325508Y44111D01*
X312995D01*
Y39429D01*
X295815D01*
Y44323D01*
X295556Y46291D01*
X294796Y48125D01*
X293588Y49700D01*
X292013Y50909D01*
X290178Y51669D01*
X288210Y51928D01*
X278210D01*
X276242Y51669D01*
X274408Y50909D01*
X273693Y50361D01*
X272424Y49700D01*
X268596D01*
X267327Y50361D01*
X266612Y50909D01*
X264778Y51669D01*
X262810Y51928D01*
X259080D01*
Y34323D01*
Y16717D01*
X262810D01*
X264778Y16977D01*
X266612Y17736D01*
X267327Y18284D01*
X268596Y18945D01*
X272424D01*
X273693Y18284D01*
X274408Y17736D01*
X276242Y16977D01*
X278210Y16717D01*
X288210D01*
X290178Y16977D01*
X292013Y17736D01*
X293588Y18945D01*
X294796Y20520D01*
X295556Y22354D01*
X295815Y24323D01*
Y29151D01*
X312995D01*
Y24469D01*
X325508D01*
X329624Y24469D01*
X334624Y24469D01*
X347137D01*
Y29151D01*
X360680D01*
X362646Y29542D01*
X364314Y30656D01*
X384094Y50436D01*
X385208Y52104D01*
X385599Y54070D01*
Y139900D01*
X385208Y141866D01*
X384094Y143533D01*
X377986Y149641D01*
X378025Y149940D01*
Y159940D01*
X377766Y161908D01*
X377006Y163742D01*
X376458Y164457D01*
X375798Y165726D01*
Y169553D01*
X376458Y170823D01*
X376790Y171256D01*
X377214Y171609D01*
X379040Y172240D01*
X381927Y172845D01*
X382727Y172744D01*
X383919Y172056D01*
X386180Y171450D01*
X388520D01*
X390781Y172056D01*
X391116Y172249D01*
X395564Y170202D01*
X396116Y169596D01*
Y3885D01*
X3885D01*
Y296115D01*
X142263D01*
X143107Y291115D01*
D02*
G37*
%LPC*%
G36*
X42290Y283540D02*
X21210D01*
Y262460D01*
X27167D01*
X27825Y257460D01*
X27682Y257422D01*
X25278Y256034D01*
X23316Y254072D01*
X21928Y251668D01*
X21210Y248988D01*
Y246212D01*
X21928Y243532D01*
X23316Y241128D01*
X25278Y239166D01*
X27682Y237778D01*
X28764Y237488D01*
Y232312D01*
X27682Y232022D01*
X25278Y230634D01*
X23316Y228672D01*
X21928Y226268D01*
X21210Y223588D01*
Y220812D01*
X21928Y218132D01*
X23316Y215728D01*
X25278Y213766D01*
X27682Y212378D01*
X28764Y212088D01*
Y206912D01*
X27682Y206622D01*
X25278Y205234D01*
X23316Y203272D01*
X21928Y200868D01*
X21210Y198188D01*
Y195412D01*
X21928Y192732D01*
X23316Y190328D01*
X25278Y188366D01*
X27682Y186978D01*
X28764Y186688D01*
Y181512D01*
X27682Y181222D01*
X25278Y179834D01*
X23316Y177872D01*
X21928Y175468D01*
X21210Y172788D01*
Y170012D01*
X21928Y167332D01*
X23316Y164928D01*
X25278Y162966D01*
X27682Y161578D01*
X28764Y161288D01*
Y156112D01*
X27682Y155822D01*
X25278Y154434D01*
X23316Y152472D01*
X21928Y150068D01*
X21210Y147388D01*
Y144612D01*
X21928Y141932D01*
X23316Y139528D01*
X25278Y137566D01*
X27682Y136178D01*
X28764Y135888D01*
Y130712D01*
X27682Y130422D01*
X25278Y129034D01*
X23316Y127072D01*
X21928Y124668D01*
X21210Y121988D01*
Y119212D01*
X21928Y116532D01*
X23316Y114128D01*
X25278Y112166D01*
X27682Y110778D01*
X28671Y110513D01*
Y105337D01*
X27682Y105072D01*
X25278Y103684D01*
X23316Y101722D01*
X21928Y99318D01*
X21210Y96638D01*
Y93862D01*
X21928Y91182D01*
X23316Y88778D01*
X25278Y86816D01*
X27682Y85428D01*
X30362Y84710D01*
X33138D01*
X35818Y85428D01*
X38222Y86816D01*
X40184Y88778D01*
X41572Y91182D01*
X42290Y93862D01*
Y96638D01*
X41572Y99318D01*
X40184Y101722D01*
X38222Y103684D01*
X35818Y105072D01*
X34829Y105337D01*
Y110513D01*
X35818Y110778D01*
X38222Y112166D01*
X40184Y114128D01*
X41572Y116532D01*
X42290Y119212D01*
Y121988D01*
X41572Y124668D01*
X40184Y127072D01*
X38222Y129034D01*
X35818Y130422D01*
X34736Y130712D01*
Y135888D01*
X35818Y136178D01*
X38222Y137566D01*
X40184Y139528D01*
X41572Y141932D01*
X42290Y144612D01*
Y147388D01*
X41572Y150068D01*
X40184Y152472D01*
X38222Y154434D01*
X35818Y155822D01*
X34736Y156112D01*
Y161288D01*
X35818Y161578D01*
X38222Y162966D01*
X40184Y164928D01*
X41572Y167332D01*
X42290Y170012D01*
Y172788D01*
X41572Y175468D01*
X40184Y177872D01*
X38222Y179834D01*
X35818Y181222D01*
X34736Y181512D01*
Y186688D01*
X35818Y186978D01*
X38222Y188366D01*
X40184Y190328D01*
X41572Y192732D01*
X42290Y195412D01*
Y198188D01*
X41572Y200868D01*
X40184Y203272D01*
X38222Y205234D01*
X35818Y206622D01*
X34736Y206912D01*
Y212088D01*
X35818Y212378D01*
X38222Y213766D01*
X40184Y215728D01*
X41572Y218132D01*
X42290Y220812D01*
Y223588D01*
X41572Y226268D01*
X40184Y228672D01*
X38222Y230634D01*
X35818Y232022D01*
X34736Y232312D01*
Y237488D01*
X35818Y237778D01*
X38222Y239166D01*
X40184Y241128D01*
X41572Y243532D01*
X42290Y246212D01*
Y248988D01*
X41572Y251668D01*
X40184Y254072D01*
X38222Y256034D01*
X35818Y257422D01*
X35675Y257460D01*
X36333Y262460D01*
X42290D01*
Y283540D01*
D02*
G37*
G36*
X123190Y74755D02*
X119460D01*
X117492Y74496D01*
X115658Y73736D01*
X114082Y72528D01*
X112874Y70953D01*
X112114Y69118D01*
X111855Y67150D01*
Y58420D01*
X123190D01*
Y74755D01*
D02*
G37*
G36*
Y55880D02*
X111855D01*
Y47150D01*
X112114Y45182D01*
X112874Y43348D01*
X114082Y41772D01*
X115658Y40564D01*
X117492Y39804D01*
X119460Y39545D01*
X123190D01*
Y55880D01*
D02*
G37*
G36*
X189230Y44423D02*
Y36830D01*
X196823D01*
X196244Y38991D01*
X195074Y41019D01*
X193419Y42674D01*
X191391Y43844D01*
X189230Y44423D01*
D02*
G37*
G36*
X186690D02*
X184529Y43844D01*
X182501Y42674D01*
X180846Y41019D01*
X179676Y38991D01*
X179097Y36830D01*
X186690D01*
Y44423D01*
D02*
G37*
G36*
X256540Y51928D02*
X252810D01*
X250842Y51669D01*
X249007Y50909D01*
X247432Y49700D01*
X246224Y48125D01*
X245464Y46291D01*
X245205Y44323D01*
Y35593D01*
X256540D01*
Y51928D01*
D02*
G37*
G36*
X196823Y34290D02*
X189230D01*
Y26697D01*
X191391Y27276D01*
X193419Y28446D01*
X195074Y30101D01*
X196244Y32129D01*
X196823Y34290D01*
D02*
G37*
G36*
X186690D02*
X179097D01*
X179676Y32129D01*
X180846Y30101D01*
X182501Y28446D01*
X184529Y27276D01*
X186690Y26697D01*
Y34290D01*
D02*
G37*
G36*
X256540Y33052D02*
X245205D01*
Y24323D01*
X245464Y22354D01*
X246224Y20520D01*
X247432Y18945D01*
X249007Y17736D01*
X250842Y16977D01*
X252810Y16717D01*
X256540D01*
Y33052D01*
D02*
G37*
%LPD*%
D14*
X322580Y153670D02*
D03*
Y179070D02*
D03*
D15*
X361670Y231140D02*
D03*
X199670Y129540D02*
D03*
X361670Y205740D02*
D03*
Y256540D02*
D03*
Y180340D02*
D03*
Y154940D02*
D03*
Y129540D02*
D03*
Y104140D02*
D03*
X199670Y256540D02*
D03*
Y231140D02*
D03*
Y205740D02*
D03*
Y180340D02*
D03*
Y154940D02*
D03*
Y104140D02*
D03*
D16*
X338823Y34290D02*
D03*
X321310D02*
D03*
D17*
X124460Y57150D02*
D03*
X149860D02*
D03*
X257810Y34323D02*
D03*
X283210D02*
D03*
X46990Y55880D02*
D03*
X72390D02*
D03*
D18*
X31750Y273000D02*
D03*
D19*
Y247600D02*
D03*
Y222200D02*
D03*
Y196800D02*
D03*
Y171400D02*
D03*
Y146000D02*
D03*
Y120600D02*
D03*
Y95250D02*
D03*
D20*
X187960Y35560D02*
D03*
X99060Y240030D02*
D03*
X97790Y201930D02*
D03*
X214630Y77470D02*
D03*
X133350Y95250D02*
D03*
X233680Y161290D02*
D03*
X387350Y180340D02*
D03*
X360680Y281940D02*
D03*
D21*
X380460Y54070D02*
Y139900D01*
X338823Y34290D02*
X360680D01*
X380460Y54070D01*
X99060Y240030D02*
X146050Y287020D01*
X302040D02*
X357920Y231140D01*
X146050Y287020D02*
X302040D01*
X357920Y231140D02*
X361670D01*
X97790Y201930D02*
Y203200D01*
X166170Y271580D01*
X292080D01*
X357920Y205740D01*
X361670D01*
X214630Y77470D02*
X241300Y104140D01*
X361670D01*
X199670Y81560D02*
Y104140D01*
X149860Y57150D02*
X175260D01*
X199670Y81560D01*
X187168Y147541D02*
X194567Y154940D01*
X185641Y147541D02*
X187168D01*
X133350Y95250D02*
X185641Y147541D01*
X194567Y154940D02*
X199670D01*
X265430Y129540D02*
X361670D01*
X233680Y161290D02*
X265430Y129540D01*
X361670Y180340D02*
X361670Y180340D01*
X387350D01*
X387350Y180340D01*
X360680Y257530D02*
Y281940D01*
Y257530D02*
X361670Y256540D01*
Y154940D02*
X365420D01*
X380460Y139900D01*
X193713Y199783D02*
X199670Y205740D01*
X185893Y199783D02*
X193713D01*
X46990Y60880D02*
X185893Y199783D01*
X46990Y55880D02*
Y60880D01*
X193713Y174383D02*
X199670Y180340D01*
X185893Y174383D02*
X193713D01*
X72390Y60880D02*
X185893Y174383D01*
X72390Y55880D02*
Y60880D01*
X283210Y34323D02*
X283242Y34290D01*
X321310D01*
M02*
