G04*
G04 #@! TF.GenerationSoftware,Altium Limited,Altium Designer,26.9.1 (10)*
G04*
G04 Layer_Color=16711935*
G04 Board_Origin=51750000|32650000*
%FSLAX44Y44*%
%MOMM*%
G71*
G04*
G04 #@! TF.SameCoordinates,564EBCF2-6FB5-4EF5-8403-360AB43F57AC*
G04*
G04*
G04 #@! TF.FilePolarity,Negative*
G04*
G01*
G75*
%ADD14R,1.1549X1.4562*%
G04:AMPARAMS|DCode=15|XSize=2mm|YSize=3mm|CornerRadius=0.5mm|HoleSize=0mm|Usage=FLASHONLY|Rotation=180.000|XOffset=0mm|YOffset=0mm|HoleType=Round|Shape=RoundedRectangle|*
%AMROUNDEDRECTD15*
21,1,2.0000,2.0000,0,0,180.0*
21,1,1.0000,3.0000,0,0,180.0*
1,1,1.0000,-0.5000,1.0000*
1,1,1.0000,0.5000,1.0000*
1,1,1.0000,0.5000,-1.0000*
1,1,1.0000,-0.5000,-1.0000*
%
%ADD15ROUNDEDRECTD15*%
%ADD16R,1.6000X1.6000*%
%ADD17C,1.6000*%
%ADD18C,1.2700*%
%ADD20R,1.4562X1.1549*%
G04:AMPARAMS|DCode=21|XSize=1.5242mm|YSize=0.578mm|CornerRadius=0.289mm|HoleSize=0mm|Usage=FLASHONLY|Rotation=180.000|XOffset=0mm|YOffset=0mm|HoleType=Round|Shape=RoundedRectangle|*
%AMROUNDEDRECTD21*
21,1,1.5242,0.0000,0,0,180.0*
21,1,0.9463,0.5780,0,0,180.0*
1,1,0.5780,-0.4731,0.0000*
1,1,0.5780,0.4731,0.0000*
1,1,0.5780,0.4731,0.0000*
1,1,0.5780,-0.4731,0.0000*
%
%ADD21ROUNDEDRECTD21*%
%ADD22R,2.6500X1.7500*%
G04:AMPARAMS|DCode=23|XSize=1.5mm|YSize=2mm|CornerRadius=0.375mm|HoleSize=0mm|Usage=FLASHONLY|Rotation=270.000|XOffset=0mm|YOffset=0mm|HoleType=Round|Shape=RoundedRectangle|*
%AMROUNDEDRECTD23*
21,1,1.5000,1.2500,0,0,270.0*
21,1,0.7500,2.0000,0,0,270.0*
1,1,0.7500,-0.6250,-0.3750*
1,1,0.7500,-0.6250,0.3750*
1,1,0.7500,0.6250,0.3750*
1,1,0.7500,0.6250,-0.3750*
%
%ADD23ROUNDEDRECTD23*%
G04:AMPARAMS|DCode=24|XSize=2mm|YSize=3mm|CornerRadius=0.5mm|HoleSize=0mm|Usage=FLASHONLY|Rotation=90.000|XOffset=0mm|YOffset=0mm|HoleType=Round|Shape=RoundedRectangle|*
%AMROUNDEDRECTD24*
21,1,2.0000,2.0000,0,0,90.0*
21,1,1.0000,3.0000,0,0,90.0*
1,1,1.0000,1.0000,0.5000*
1,1,1.0000,1.0000,-0.5000*
1,1,1.0000,-1.0000,-0.5000*
1,1,1.0000,-1.0000,0.5000*
%
%ADD24ROUNDEDRECTD24*%
%ADD25R,1.5242X0.5780*%
D14*
X302126Y120650D02*
D03*
X284614D02*
D03*
D15*
X264160Y273050D02*
D03*
X238760D02*
D03*
D16*
X31750Y273000D02*
D03*
D17*
Y95250D02*
D03*
Y120600D02*
D03*
Y146000D02*
D03*
Y171400D02*
D03*
Y196800D02*
D03*
Y222200D02*
D03*
Y247600D02*
D03*
D18*
X126236Y89791D02*
D03*
X360680Y281940D02*
D03*
X182931Y53466D02*
D03*
X97790Y201930D02*
D03*
X233680Y161290D02*
D03*
X99060Y240030D02*
D03*
X387350Y180340D02*
D03*
X214630Y77470D02*
D03*
D20*
X330200Y214764D02*
D03*
Y232276D02*
D03*
X250190Y124326D02*
D03*
Y106814D02*
D03*
D21*
X295886Y273050D02*
D03*
X314090Y263550D02*
D03*
D22*
X290923Y219710D02*
D03*
X247922D02*
D03*
D23*
X209017Y123190D02*
D03*
X54018Y148590D02*
D03*
Y173990D02*
D03*
Y199390D02*
D03*
X209017Y148590D02*
D03*
X54018Y123190D02*
D03*
X209017Y199390D02*
D03*
Y173990D02*
D03*
D24*
X269240Y154940D02*
D03*
Y180340D02*
D03*
D25*
X314090Y282550D02*
D03*
M02*
