G04*
G04 #@! TF.GenerationSoftware,Altium Limited,Altium Designer,26.9.1 (10)*
G04*
G04 Layer_Physical_Order=1*
G04 Layer_Color=255*
G04 Board_Origin=51750000|32650000*
%FSLAX44Y44*%
%MOMM*%
G71*
G04*
G04 #@! TF.SameCoordinates,564EBCF2-6FB5-4EF5-8403-360AB43F57AC*
G04*
G04*
G04 #@! TF.FilePolarity,Positive*
G04*
G01*
G75*
G04:AMPARAMS|DCode=13|XSize=2.75mm|YSize=2mm|CornerRadius=0.5mm|HoleSize=0mm|Usage=FLASHONLY|Rotation=180.000|XOffset=0mm|YOffset=0mm|HoleType=Round|Shape=RoundedRectangle|*
%AMROUNDEDRECTD13*
21,1,2.7500,1.0000,0,0,180.0*
21,1,1.7500,2.0000,0,0,180.0*
1,1,1.0000,-0.8750,0.5000*
1,1,1.0000,0.8750,0.5000*
1,1,1.0000,0.8750,-0.5000*
1,1,1.0000,-0.8750,-0.5000*
%
%ADD13ROUNDEDRECTD13*%
%ADD14R,1.1549X1.4562*%
G04:AMPARAMS|DCode=15|XSize=2mm|YSize=3mm|CornerRadius=0.5mm|HoleSize=0mm|Usage=FLASHONLY|Rotation=180.000|XOffset=0mm|YOffset=0mm|HoleType=Round|Shape=RoundedRectangle|*
%AMROUNDEDRECTD15*
21,1,2.0000,2.0000,0,0,180.0*
21,1,1.0000,3.0000,0,0,180.0*
1,1,1.0000,-0.5000,1.0000*
1,1,1.0000,0.5000,1.0000*
1,1,1.0000,0.5000,-1.0000*
1,1,1.0000,-0.5000,-1.0000*
%
%ADD15ROUNDEDRECTD15*%
%ADD16R,1.6000X1.6000*%
%ADD17C,1.6000*%
%ADD18C,1.2700*%
%ADD19C,0.5000*%
G36*
X30000Y296115D02*
X142263D01*
X143107Y291115D01*
X142416Y290654D01*
X100587Y248824D01*
X100230Y248920D01*
X97890D01*
X95629Y248314D01*
X93601Y247144D01*
X91946Y245489D01*
X90776Y243461D01*
X90170Y241200D01*
Y238860D01*
X90776Y236599D01*
X91946Y234571D01*
X93601Y232916D01*
X95629Y231746D01*
X97890Y231140D01*
X100230D01*
X102491Y231746D01*
X104519Y232916D01*
X106174Y234571D01*
X107344Y236599D01*
X107950Y238860D01*
Y241200D01*
X107854Y241557D01*
X148179Y281881D01*
X299911D01*
X344490Y237302D01*
X344037Y233698D01*
X339112Y231815D01*
X295714Y275213D01*
X294046Y276327D01*
X292080Y276719D01*
X166170D01*
X164203Y276327D01*
X162536Y275213D01*
X98143Y210820D01*
X96620D01*
X94359Y210214D01*
X92331Y209044D01*
X90676Y207389D01*
X89506Y205361D01*
X88900Y203100D01*
Y200760D01*
X89506Y198499D01*
X90676Y196471D01*
X92331Y194816D01*
X94359Y193646D01*
X96620Y193040D01*
X98960D01*
X101221Y193646D01*
X103249Y194816D01*
X104904Y196471D01*
X106074Y198499D01*
X106680Y200760D01*
Y203100D01*
X106316Y204459D01*
X168298Y266441D01*
X179377D01*
X180451Y265690D01*
X183315Y261540D01*
Y251540D01*
X183574Y249571D01*
X184334Y247737D01*
X184882Y247023D01*
X185543Y245753D01*
Y241926D01*
X184882Y240657D01*
X184334Y239942D01*
X183574Y238108D01*
X183315Y236140D01*
Y226140D01*
X183574Y224172D01*
X184334Y222337D01*
X184882Y221623D01*
X185543Y220354D01*
Y216526D01*
X184882Y215257D01*
X184334Y214542D01*
X183574Y212708D01*
X183315Y210740D01*
Y204122D01*
X182260Y203417D01*
X42416Y63574D01*
X41302Y61906D01*
X40911Y59940D01*
Y47605D01*
X40600D01*
X38632Y47346D01*
X36797Y46586D01*
X35222Y45378D01*
X34014Y43802D01*
X33254Y41968D01*
X32995Y40000D01*
Y20000D01*
X33254Y18032D01*
X34014Y16198D01*
X35222Y14622D01*
X36797Y13414D01*
X38632Y12654D01*
X40600Y12395D01*
X50600D01*
X52568Y12654D01*
X54402Y13414D01*
X55117Y13962D01*
X56386Y14622D01*
X60214D01*
X61483Y13962D01*
X62197Y13414D01*
X64032Y12654D01*
X66000Y12395D01*
X76000D01*
X77968Y12654D01*
X79802Y13414D01*
X81378Y14622D01*
X82586Y16198D01*
X83346Y18032D01*
X83605Y20000D01*
Y40000D01*
X83346Y41968D01*
X82586Y43802D01*
X81378Y45378D01*
X79802Y46586D01*
X77968Y47346D01*
X76589Y47528D01*
Y57811D01*
X113060Y94282D01*
X117542Y91694D01*
X117346Y90962D01*
Y88621D01*
X117952Y86360D01*
X119122Y84333D01*
X120778Y82678D01*
X122805Y81507D01*
X125066Y80901D01*
X127407D01*
X129668Y81507D01*
X131695Y82678D01*
X133350Y84333D01*
X134520Y86360D01*
X135126Y88621D01*
Y90962D01*
X135031Y91319D01*
X178360Y134648D01*
X183315Y132532D01*
Y130810D01*
X199670D01*
X216025D01*
Y134540D01*
X215766Y136508D01*
X215006Y138342D01*
X214458Y139057D01*
X213798Y140326D01*
Y144153D01*
X214458Y145423D01*
X215006Y146137D01*
X215766Y147971D01*
X216025Y149940D01*
Y159940D01*
X215766Y161908D01*
X215006Y163742D01*
X214458Y164457D01*
X213798Y165726D01*
Y169554D01*
X214458Y170823D01*
X215006Y171537D01*
X215766Y173372D01*
X216025Y175340D01*
Y185340D01*
X215766Y187308D01*
X215006Y189142D01*
X214458Y189857D01*
X213798Y191126D01*
Y194953D01*
X214458Y196223D01*
X215006Y196937D01*
X215766Y198771D01*
X216025Y200740D01*
Y210740D01*
X215766Y212708D01*
X215006Y214542D01*
X214458Y215257D01*
X213798Y216526D01*
Y220354D01*
X214458Y221623D01*
X215006Y222337D01*
X215766Y224172D01*
X216025Y226140D01*
Y236140D01*
X215766Y238108D01*
X215006Y239942D01*
X214458Y240657D01*
X213798Y241926D01*
Y245753D01*
X214458Y247023D01*
X215006Y247737D01*
X215766Y249571D01*
X216025Y251540D01*
Y261540D01*
X218889Y265690D01*
X219963Y266441D01*
X289951D01*
X345354Y211038D01*
X345315Y210740D01*
Y202914D01*
X344289Y200180D01*
X340610Y198170D01*
X289560D01*
X288569Y197973D01*
X287729Y197411D01*
X287167Y196571D01*
X286970Y195580D01*
Y138430D01*
X284194Y135466D01*
X283006Y134678D01*
X267559D01*
X242474Y159763D01*
X242570Y160120D01*
Y162460D01*
X241964Y164721D01*
X240794Y166749D01*
X239139Y168404D01*
X237111Y169574D01*
X234850Y170180D01*
X232510D01*
X230249Y169574D01*
X228221Y168404D01*
X226566Y166749D01*
X225396Y164721D01*
X224790Y162460D01*
Y160120D01*
X225396Y157859D01*
X226566Y155831D01*
X228221Y154176D01*
X230249Y153006D01*
X232510Y152400D01*
X234850D01*
X235207Y152496D01*
X261797Y125906D01*
X263464Y124792D01*
X265430Y124401D01*
X345333D01*
X345574Y122571D01*
X346334Y120737D01*
X346882Y120023D01*
X347542Y118753D01*
Y114926D01*
X346882Y113657D01*
X346334Y112942D01*
X345574Y111108D01*
X345333Y109278D01*
X241300D01*
X239333Y108887D01*
X237666Y107773D01*
X216157Y86264D01*
X215800Y86360D01*
X213460D01*
X211199Y85754D01*
X209171Y84584D01*
X207516Y82929D01*
X206346Y80901D01*
X205740Y78640D01*
Y76300D01*
X206346Y74039D01*
X207516Y72011D01*
X209171Y70356D01*
X211199Y69186D01*
X213460Y68580D01*
X215800D01*
X218061Y69186D01*
X220089Y70356D01*
X221744Y72011D01*
X222914Y74039D01*
X223520Y76300D01*
Y78640D01*
X223424Y78997D01*
X243428Y99001D01*
X345333D01*
X345574Y97171D01*
X346334Y95337D01*
X347542Y93762D01*
X349118Y92554D01*
X350952Y91794D01*
X352920Y91535D01*
X370420D01*
X374571Y88671D01*
X375321Y87597D01*
Y56199D01*
X358551Y39429D01*
X347137D01*
Y44111D01*
X334624D01*
X330508Y44111D01*
X325508Y44111D01*
X312995D01*
Y39429D01*
X294587D01*
X294346Y40010D01*
X293138Y41585D01*
X291562Y42794D01*
X289728Y43553D01*
X287760Y43812D01*
X277760D01*
X275792Y43553D01*
X273957Y42794D01*
X273243Y42246D01*
X271974Y41585D01*
X268146D01*
X266877Y42246D01*
X266162Y42794D01*
X264328Y43553D01*
X262360Y43812D01*
X258630D01*
Y26208D01*
X257360D01*
Y24938D01*
X244755D01*
Y16207D01*
X245014Y14239D01*
X245774Y12405D01*
X246982Y10830D01*
X248557Y9621D01*
X250392Y8862D01*
X249888Y3885D01*
X30000D01*
X29752Y3835D01*
X24891Y4314D01*
X19978Y5804D01*
X15450Y8224D01*
X11481Y11481D01*
X8224Y15450D01*
X5804Y19978D01*
X4314Y24891D01*
X3835Y29752D01*
X3885Y30000D01*
Y270000D01*
X3835Y270248D01*
X4314Y275109D01*
X5804Y280022D01*
X8224Y284550D01*
X11481Y288518D01*
X15450Y291775D01*
X19978Y294195D01*
X24891Y295686D01*
X29752Y296165D01*
X30000Y296115D01*
D02*
G37*
%LPC*%
G36*
X216025Y128270D02*
X199670D01*
X183315D01*
Y124540D01*
X183574Y122571D01*
X184334Y120737D01*
X184882Y120023D01*
X185543Y118753D01*
Y114926D01*
X184882Y113657D01*
X184334Y112942D01*
X183574Y111108D01*
X183333Y109279D01*
X176140D01*
X174173Y108888D01*
X172506Y107774D01*
X146226Y81494D01*
X145112Y79826D01*
X144721Y77860D01*
Y47605D01*
X144410D01*
X142442Y47346D01*
X140607Y46586D01*
X139893Y46038D01*
X138624Y45378D01*
X134796D01*
X133527Y46038D01*
X132812Y46586D01*
X130978Y47346D01*
X129010Y47605D01*
X125280D01*
Y30000D01*
X124010D01*
D01*
X125280D01*
Y12395D01*
X129010D01*
X130978Y12654D01*
X132812Y13414D01*
X133527Y13962D01*
X134796Y14622D01*
X138624D01*
X139893Y13962D01*
X140607Y13414D01*
X142442Y12654D01*
X144410Y12395D01*
X154410D01*
X156378Y12654D01*
X158212Y13414D01*
X159788Y14622D01*
X160996Y16198D01*
X161756Y18032D01*
X162015Y20000D01*
Y40000D01*
X161756Y41968D01*
X160996Y43802D01*
X159788Y45378D01*
X158212Y46586D01*
X156378Y47346D01*
X154999Y47528D01*
Y75732D01*
X178268Y99001D01*
X183333D01*
X183574Y97171D01*
X184334Y95337D01*
X185543Y93762D01*
X187118Y92554D01*
X188952Y91794D01*
X190920Y91535D01*
X208420D01*
X210388Y91794D01*
X212223Y92554D01*
X213798Y93762D01*
X215006Y95337D01*
X215766Y97171D01*
X216025Y99140D01*
Y109140D01*
X215766Y111108D01*
X215006Y112942D01*
X214458Y113657D01*
X213798Y114926D01*
Y118753D01*
X214458Y120023D01*
X215006Y120737D01*
X215766Y122571D01*
X216025Y124540D01*
Y128270D01*
D02*
G37*
G36*
X42290Y283540D02*
X21210D01*
Y262460D01*
X27167D01*
X27825Y257460D01*
X27682Y257422D01*
X25278Y256034D01*
X23316Y254072D01*
X21928Y251668D01*
X21210Y248988D01*
Y246212D01*
X21928Y243532D01*
X23316Y241128D01*
X25278Y239166D01*
X27682Y237778D01*
X28764Y237488D01*
Y232312D01*
X27682Y232022D01*
X25278Y230634D01*
X23316Y228672D01*
X21928Y226268D01*
X21210Y223588D01*
Y220812D01*
X21928Y218132D01*
X23316Y215728D01*
X25278Y213766D01*
X27682Y212378D01*
X28764Y212088D01*
Y206912D01*
X27682Y206622D01*
X25278Y205234D01*
X23316Y203272D01*
X21928Y200868D01*
X21210Y198188D01*
Y195412D01*
X21928Y192732D01*
X23316Y190328D01*
X25278Y188366D01*
X27682Y186978D01*
X28764Y186688D01*
Y181512D01*
X27682Y181222D01*
X25278Y179834D01*
X23316Y177872D01*
X21928Y175468D01*
X21210Y172788D01*
Y170012D01*
X21928Y167332D01*
X23316Y164928D01*
X25278Y162966D01*
X27682Y161578D01*
X28764Y161288D01*
Y156112D01*
X27682Y155822D01*
X25278Y154434D01*
X23316Y152472D01*
X21928Y150068D01*
X21210Y147388D01*
Y144612D01*
X21928Y141932D01*
X23316Y139528D01*
X25278Y137566D01*
X27682Y136178D01*
X28764Y135888D01*
Y130712D01*
X27682Y130422D01*
X25278Y129034D01*
X23316Y127072D01*
X21928Y124668D01*
X21210Y121988D01*
Y119212D01*
X21928Y116532D01*
X23316Y114128D01*
X25278Y112166D01*
X27682Y110778D01*
X28671Y110513D01*
Y105337D01*
X27682Y105072D01*
X25278Y103684D01*
X23316Y101722D01*
X21928Y99318D01*
X21210Y96638D01*
Y93862D01*
X21928Y91182D01*
X23316Y88778D01*
X25278Y86816D01*
X27682Y85428D01*
X30362Y84710D01*
X33138D01*
X35818Y85428D01*
X38222Y86816D01*
X40184Y88778D01*
X41572Y91182D01*
X42290Y93862D01*
Y96638D01*
X41572Y99318D01*
X40184Y101722D01*
X38222Y103684D01*
X35818Y105072D01*
X34829Y105337D01*
Y110513D01*
X35818Y110778D01*
X38222Y112166D01*
X40184Y114128D01*
X41572Y116532D01*
X42290Y119212D01*
Y121988D01*
X41572Y124668D01*
X40184Y127072D01*
X38222Y129034D01*
X35818Y130422D01*
X34736Y130712D01*
Y135888D01*
X35818Y136178D01*
X38222Y137566D01*
X40184Y139528D01*
X41572Y141932D01*
X42290Y144612D01*
Y147388D01*
X41572Y150068D01*
X40184Y152472D01*
X38222Y154434D01*
X35818Y155822D01*
X34736Y156112D01*
Y161288D01*
X35818Y161578D01*
X38222Y162966D01*
X40184Y164928D01*
X41572Y167332D01*
X42290Y170012D01*
Y172788D01*
X41572Y175468D01*
X40184Y177872D01*
X38222Y179834D01*
X35818Y181222D01*
X34736Y181512D01*
Y186688D01*
X35818Y186978D01*
X38222Y188366D01*
X40184Y190328D01*
X41572Y192732D01*
X42290Y195412D01*
Y198188D01*
X41572Y200868D01*
X40184Y203272D01*
X38222Y205234D01*
X35818Y206622D01*
X34736Y206912D01*
Y212088D01*
X35818Y212378D01*
X38222Y213766D01*
X40184Y215728D01*
X41572Y218132D01*
X42290Y220812D01*
Y223588D01*
X41572Y226268D01*
X40184Y228672D01*
X38222Y230634D01*
X35818Y232022D01*
X34736Y232312D01*
Y237488D01*
X35818Y237778D01*
X38222Y239166D01*
X40184Y241128D01*
X41572Y243532D01*
X42290Y246212D01*
Y248988D01*
X41572Y251668D01*
X40184Y254072D01*
X38222Y256034D01*
X35818Y257422D01*
X35675Y257460D01*
X36333Y262460D01*
X42290D01*
Y283540D01*
D02*
G37*
G36*
X184201Y62329D02*
Y54736D01*
X191795D01*
X191216Y56897D01*
X190045Y58924D01*
X188390Y60580D01*
X186363Y61750D01*
X184201Y62329D01*
D02*
G37*
G36*
X181661D02*
X179500Y61750D01*
X177473Y60580D01*
X175818Y58924D01*
X174647Y56897D01*
X174068Y54736D01*
X181661D01*
Y62329D01*
D02*
G37*
G36*
X191795Y52196D02*
X184201D01*
Y44602D01*
X186363Y45182D01*
X188390Y46352D01*
X190045Y48007D01*
X191216Y50034D01*
X191795Y52196D01*
D02*
G37*
G36*
X181661D02*
X174068D01*
X174647Y50034D01*
X175818Y48007D01*
X177473Y46352D01*
X179500Y45182D01*
X181661Y44602D01*
Y52196D01*
D02*
G37*
G36*
X122740Y47605D02*
X119010D01*
X117042Y47346D01*
X115207Y46586D01*
X113632Y45378D01*
X112424Y43802D01*
X111664Y41968D01*
X111405Y40000D01*
Y31270D01*
X122740D01*
Y47605D01*
D02*
G37*
G36*
X256090Y43812D02*
X252360D01*
X250392Y43553D01*
X248557Y42794D01*
X246982Y41585D01*
X245774Y40010D01*
X245014Y38176D01*
X244755Y36207D01*
Y27478D01*
X256090D01*
Y43812D01*
D02*
G37*
G36*
X122740Y28730D02*
X111405D01*
Y20000D01*
X111664Y18032D01*
X112424Y16198D01*
X113632Y14622D01*
X115207Y13414D01*
X117042Y12654D01*
X119010Y12395D01*
X122740D01*
Y28730D01*
D02*
G37*
%LPD*%
D13*
X199670Y154940D02*
D03*
Y180340D02*
D03*
Y205740D02*
D03*
Y129540D02*
D03*
X361670Y205740D02*
D03*
Y129540D02*
D03*
Y231140D02*
D03*
X199670Y104140D02*
D03*
X361670Y256540D02*
D03*
Y180340D02*
D03*
Y154940D02*
D03*
Y104140D02*
D03*
X199670Y256540D02*
D03*
Y231140D02*
D03*
D14*
X338823Y34290D02*
D03*
X321310D02*
D03*
D15*
X71000Y30000D02*
D03*
X45600D02*
D03*
X149410D02*
D03*
X124010D02*
D03*
X282760Y26207D02*
D03*
X257360D02*
D03*
D16*
X31750Y273000D02*
D03*
D17*
Y95250D02*
D03*
Y120600D02*
D03*
Y146000D02*
D03*
Y171400D02*
D03*
Y196800D02*
D03*
Y222200D02*
D03*
Y247600D02*
D03*
D18*
X126236Y89791D02*
D03*
X360680Y281940D02*
D03*
X182931Y53466D02*
D03*
X97790Y201930D02*
D03*
X233680Y161290D02*
D03*
X99060Y240030D02*
D03*
X387350Y180340D02*
D03*
X214630Y77470D02*
D03*
D19*
X187168Y147541D02*
X194567Y154940D01*
X199670D01*
X126236Y89791D02*
X183986Y147541D01*
X187168D01*
X149860Y30000D02*
Y77860D01*
X193713Y174383D02*
X199670Y180340D01*
X185893Y174383D02*
X193713D01*
X71450Y30250D02*
Y59940D01*
X185893Y174383D01*
X193713Y199783D02*
X199670Y205740D01*
X185893Y199783D02*
X193713D01*
X46050Y30250D02*
Y59940D01*
X185893Y199783D01*
X360680Y257530D02*
Y281940D01*
X357920Y205740D02*
X361670D01*
X292080Y271580D02*
X357920Y205740D01*
X166170Y271580D02*
X292080D01*
X97790Y203200D02*
X166170Y271580D01*
X97790Y201930D02*
Y203200D01*
X233680Y161290D02*
X265430Y129540D01*
X361670D01*
X357920Y231140D02*
X361670D01*
X146050Y287020D02*
X302040D01*
X357920Y231140D01*
X99060Y240030D02*
X146050Y287020D01*
X176140Y104140D02*
X199670D01*
X149860Y77860D02*
X176140Y104140D01*
X387350Y180340D02*
X387350Y180340D01*
X361670Y180340D02*
X387350D01*
X361670Y180340D02*
X361670Y180340D01*
X360680Y257530D02*
X361670Y256540D01*
X380460Y54070D02*
Y139900D01*
X338823Y34290D02*
X360680D01*
X380460Y54070D01*
X365420Y154940D02*
X380460Y139900D01*
X361670Y154940D02*
X365420D01*
X241300Y104140D02*
X361670D01*
X214630Y77470D02*
X241300Y104140D01*
X283210Y34323D02*
X283242Y34290D01*
X321310D01*
M02*
